<?xml version="1.0" standalone="no"?>
<!DOCTYPE svg PUBLIC "-//W3C//DTD SVG 20010904//EN"
 "http://www.w3.org/TR/2001/REC-SVG-20010904/DTD/svg10.dtd">
<svg version="1.0" xmlns="http://www.w3.org/2000/svg"
 width="700.000000pt" height="700.000000pt" viewBox="0 0 700.000000 700.000000"
 preserveAspectRatio="xMidYMid meet">
<metadata>
Created by potrace 1.14, written by Peter Selinger 2001-2017
</metadata>
<g transform="translate(0.000000,700.000000) scale(0.100000,-0.100000)"
fill="#000000" stroke="none">
<path d="M3378 6415 c-2 -1 -50 -5 -108 -9 -58 -4 -116 -8 -130 -10 -14 -2
-46 -6 -70 -10 -43 -6 -170 -30 -217 -41 -31 -7 -53 -12 -88 -20 -67 -15 -256
-79 -359 -122 -109 -44 -328 -151 -376 -184 -14 -9 -54 -35 -90 -58 -94 -59
-94 -59 -199 -140 -225 -173 -403 -352 -577 -581 -284 -373 -499 -889 -550
-1325 -4 -27 -8 -53 -10 -56 -6 -11 -18 -241 -18 -359 0 -195 13 -342 49 -545
23 -124 101 -399 140 -490 24 -56 54 -140 61 -169 11 -47 11 -67 -4 -141 -7
-38 -15 -81 -18 -95 -2 -14 -9 -45 -14 -70 -5 -25 -12 -56 -14 -70 -2 -14 -11
-59 -19 -100 -9 -41 -18 -86 -21 -100 -2 -14 -39 -198 -82 -410 -49 -246 -77
-407 -77 -446 3 -179 172 -309 357 -273 22 5 52 11 66 14 29 6 163 33 200 40
14 3 39 8 55 11 17 3 48 9 70 14 22 5 55 11 73 15 18 3 64 12 102 20 38 8 84
17 102 20 17 3 109 22 202 41 94 19 183 37 199 39 15 3 60 12 100 21 128 28
160 23 382 -61 90 -34 220 -74 290 -90 6 -2 28 -7 50 -13 40 -11 69 -17 134
-28 18 -3 43 -8 55 -10 11 -2 41 -7 66 -10 25 -3 56 -7 70 -9 157 -24 602 -23
690 0 8 2 40 6 70 9 44 5 205 36 315 61 118 27 395 132 545 205 499 246 939
653 1231 1140 57 95 139 256 174 340 14 36 32 79 39 95 34 77 109 331 131 440
6 32 30 177 39 235 26 173 26 559 1 730 -11 73 -28 176 -31 195 -2 11 -7 34
-10 50 -14 79 -82 322 -108 385 -8 19 -26 64 -40 100 -93 241 -254 514 -439
745 -103 127 -313 337 -442 440 -106 85 -311 225 -385 264 -25 13 -67 36 -95
51 -73 40 -287 132 -390 168 -87 30 -289 86 -350 97 -221 39 -207 37 -350 50
-69 7 -372 15 -377 10z"/>
</g>
</svg>
